{
	"asset":{
		"generator":"Khronos glTF Blender I/O v3.5.30",
		"version":"2.0"
	},
	"scene":0,
	"scenes":[
		{
			"name":"Scene",
			"nodes":[
				0
			]
		}
	],
	"nodes":[
		{
			"mesh":0,
			"name":"New_Final_Plant_Bake"
		}
	],
	"materials":[
		{
			"doubleSided":true,
			"name":"Material.002",
			"pbrMetallicRoughness":{
				"baseColorTexture":{
					"index":0
				},
				"metallicFactor":0,
				"roughnessFactor":0.5
			}
		},
		{
			"alphaMode":"BLEND",
			"doubleSided":true,
			"name":"Material.001",
			"pbrMetallicRoughness":{
				"baseColorTexture":{
					"index":1
				},
				"metallicFactor":0,
				"roughnessFactor":0.5
			}
		}
	],
	"meshes":[
		{
			"name":"tree.021",
			"primitives":[
				{
					"attributes":{
						"COLOR_0":0,
						"POSITION":1,
						"TEXCOORD_0":2,
						"NORMAL":3
					},
					"indices":4,
					"material":0
				},
				{
					"attributes":{
						"COLOR_0":5,
						"POSITION":6,
						"TEXCOORD_0":7,
						"NORMAL":8
					},
					"indices":9,
					"material":1
				}
			]
		}
	],
	"textures":[
		{
			"sampler":0,
			"source":0
		},
		{
			"sampler":0,
			"source":1
		}
	],
	"images":[
		{
			"bufferView":5,
			"mimeType":"image/jpeg",
			"name":"PALM LEAF RS"
		},
		{
			"bufferView":11,
			"mimeType":"image/png",
			"name":"CANA-1-CANA-OPAS"
		}
	],
	"accessors":[
		{
			"bufferView":0,
			"componentType":5123,
			"count":9339,
			"normalized":true,
			"type":"VEC4"
		},
		{
			"bufferView":1,
			"componentType":5126,
			"count":9339,
			"max":[
				1.1161916255950928,
				4.765167713165283,
				1.350050687789917
			],
			"min":[
				-1.2995994091033936,
				-0.0001710653305053711,
				-1.1816763877868652
			],
			"type":"VEC3"
		},
		{
			"bufferView":2,
			"componentType":5126,
			"count":9339,
			"type":"VEC2"
		},
		{
			"bufferView":3,
			"componentType":5126,
			"count":9339,
			"type":"VEC3"
		},
		{
			"bufferView":4,
			"componentType":5123,
			"count":49200,
			"type":"SCALAR"
		},
		{
			"bufferView":6,
			"componentType":5123,
			"count":34500,
			"normalized":true,
			"type":"VEC4"
		},
		{
			"bufferView":7,
			"componentType":5126,
			"count":34500,
			"max":[
				1.5583863258361816,
				4.815650463104248,
				1.7423996925354004
			],
			"min":[
				-1.7639296054840088,
				0.8256231546401978,
				-1.542860507965088
			],
			"type":"VEC3"
		},
		{
			"bufferView":8,
			"componentType":5126,
			"count":34500,
			"type":"VEC2"
		},
		{
			"bufferView":9,
			"componentType":5126,
			"count":34500,
			"type":"VEC3"
		},
		{
			"bufferView":10,
			"componentType":5123,
			"count":94500,
			"type":"SCALAR"
		}
	],
	"bufferViews":[
		{
			"buffer":0,
			"byteLength":74712,
			"byteOffset":0,
			"target":34962
		},
		{
			"buffer":0,
			"byteLength":112068,
			"byteOffset":74712,
			"target":34962
		},
		{
			"buffer":0,
			"byteLength":74712,
			"byteOffset":186780,
			"target":34962
		},
		{
			"buffer":0,
			"byteLength":112068,
			"byteOffset":261492,
			"target":34962
		},
		{
			"buffer":0,
			"byteLength":98400,
			"byteOffset":373560,
			"target":34963
		},
		{
			"buffer":0,
			"byteLength":127692,
			"byteOffset":471960
		},
		{
			"buffer":0,
			"byteLength":276000,
			"byteOffset":599652,
			"target":34962
		},
		{
			"buffer":0,
			"byteLength":414000,
			"byteOffset":875652,
			"target":34962
		},
		{
			"buffer":0,
			"byteLength":276000,
			"byteOffset":1289652,
			"target":34962
		},
		{
			"buffer":0,
			"byteLength":414000,
			"byteOffset":1565652,
			"target":34962
		},
		{
			"buffer":0,
			"byteLength":189000,
			"byteOffset":1979652,
			"target":34963
		},
		{
			"buffer":0,
			"byteLength":645926,
			"byteOffset":2168652
		}
	],
	"samplers":[
		{
			"magFilter":9729,
			"minFilter":9987
		}
	],
	"buffers":[
		{
			"byteLength":2814580,
			"uri":"data:application/octet-stream;base64,"
		}
	]
}
